<svg width="483" height="142" viewBox="0 0 483 142" fill="none" xmlns="http://www.w3.org/2000/svg">
<g filter="url(#filter0_d_2_3)">
<path d="M5.456 87.328C4.496 87.328 4.144 86.464 4.4 84.736C4.592 82.496 4.912 79.744 5.36 76.48C5.872 73.152 6.48 69.312 7.184 64.96C7.504 64 8.016 63.52 8.72 63.52C9.616 63.52 10.064 63.936 10.064 64.768C10.064 64.832 10.064 64.96 10.064 65.152C10.064 65.28 10.032 65.44 9.968 65.632C9.84 66.208 9.712 66.848 9.584 67.552C9.52 68.192 9.488 68.896 9.488 69.664C9.488 70.56 9.52 71.52 9.584 72.544C9.712 73.568 9.904 74.656 10.16 75.808C10.544 75.808 12.112 74.432 14.864 71.68C17.616 69.056 19.856 67.488 21.584 66.976V66.88C21.776 66.816 21.968 66.784 22.16 66.784C22.352 66.784 22.512 66.784 22.64 66.784C23.856 66.784 24.656 67.36 25.04 68.512L26.384 77.44C26.96 81.344 28.016 83.296 29.552 83.296C30.192 83.296 30.832 83.072 31.472 82.624C32.368 81.984 33.232 81.312 34.064 80.608C34.896 79.84 35.632 79.04 36.272 78.208C36.656 78.08 36.912 78.016 37.04 78.016C37.488 78.016 37.712 78.304 37.712 78.88C37.712 79.264 37.456 79.776 36.944 80.416C36.112 81.44 35.248 82.496 34.352 83.584C33.456 84.608 32.56 85.408 31.664 85.984C30.448 86.688 29.424 87.04 28.592 87.04C26.864 87.04 25.552 85.632 24.656 82.816L23.024 75.04C22.448 72.416 21.712 71.232 20.816 71.488C20.752 71.488 20.656 71.488 20.528 71.488C20.464 71.424 20.368 71.392 20.24 71.392C19.984 71.392 19.664 71.456 19.28 71.584C18.96 71.712 18.64 71.936 18.32 72.256L16.016 74.656C14.032 76.704 12.368 78.688 11.024 80.608C9.68 82.528 8.592 84.32 7.76 85.984C7.248 86.88 6.48 87.328 5.456 87.328ZM42.2023 56.224C41.2423 56.224 40.7943 55.648 40.8583 54.496L41.8183 50.848C42.0103 50.144 42.4583 49.792 43.1623 49.792C44.6343 49.792 45.2423 50.4 44.9863 51.616C44.9223 52.512 44.6983 53.504 44.3143 54.592C43.9303 55.68 43.2263 56.224 42.2023 56.224ZM38.8423 86.464C38.2663 86.464 37.8823 86.208 37.6903 85.696C37.4343 84.992 37.2743 84.128 37.2103 83.104C37.1463 82.08 37.1463 80.928 37.2103 79.648C37.3383 78.176 37.6903 76.32 38.2663 74.08C38.9063 71.84 39.7703 69.248 40.8583 66.304C41.1143 65.664 41.5623 65.344 42.2023 65.344C43.4183 65.344 43.8343 65.888 43.4503 66.976C43.1943 67.808 42.9703 68.64 42.7783 69.472C42.5863 70.304 42.3943 71.136 42.2023 71.968C41.8823 73.44 41.6263 74.752 41.4343 75.904C41.2423 77.056 41.1463 78.08 41.1463 78.976C41.1463 82.112 41.1783 83.744 41.2422 83.872C41.4343 84.512 41.2423 85.12 40.6663 85.696C40.0903 86.208 39.4823 86.464 38.8423 86.464ZM51.695 90.112C50.095 90.112 48.719 89.824 47.567 89.248C46.479 88.672 45.935 87.872 45.935 86.848C45.935 86.144 46.255 85.792 46.895 85.792C46.831 85.792 47.343 86.016 48.431 86.464C49.519 86.848 50.671 87.04 51.887 87.04C55.599 87.04 57.935 85.312 58.895 81.856C59.279 80.384 57.935 77.952 54.863 74.56C52.687 72.192 51.599 69.504 51.599 66.496C51.599 65.472 52.047 64.288 52.943 62.944C53.839 61.536 54.927 60.32 56.207 59.296C57.487 58.208 58.703 57.664 59.855 57.664C61.903 57.664 63.055 58.176 63.311 59.2C63.375 59.392 63.407 59.584 63.407 59.776C63.471 59.968 63.503 60.16 63.503 60.352C63.503 61.376 63.119 61.888 62.351 61.888C61.903 61.888 61.551 61.728 61.295 61.408C60.975 61.088 60.527 60.928 59.951 60.928C59.823 60.928 59.663 60.928 59.471 60.928C59.279 60.928 59.119 60.992 58.991 61.12C56.687 62.272 55.375 63.872 55.055 65.92C54.799 67.712 56.175 70.208 59.183 73.408C61.871 76.288 63.215 78.976 63.215 81.472C63.215 84.224 61.807 86.432 58.991 88.096C56.815 89.44 54.383 90.112 51.695 90.112ZM71.3135 88.768C69.7135 88.768 68.8175 88.032 68.6255 86.56C68.4975 85.664 68.4015 84.704 68.3375 83.68C68.2735 82.592 68.2415 81.44 68.2415 80.224C68.2415 75.68 68.5615 70.72 69.2015 65.344C69.9055 59.904 70.8975 54.048 72.1775 47.776C73.0095 44 73.6495 40.96 74.0975 38.656C74.6095 36.352 74.9615 34.848 75.1535 34.144C76.4335 29.408 77.9695 26.176 79.7615 24.448C80.5295 23.68 81.4255 23.296 82.4495 23.296C83.9855 23.296 85.3615 24.128 86.5775 25.792C87.7935 27.456 88.4015 29.6 88.4015 32.224C88.4015 33.952 88.1135 35.744 87.5375 37.6C87.0895 38.944 86.2895 40.608 85.1375 42.592C84.0495 44.512 82.5775 46.784 80.7215 49.408C76.9455 54.656 74.8655 57.984 74.4815 59.392L73.1375 65.056C72.8815 66.208 72.6895 67.328 72.5615 68.416C72.4975 69.504 72.4655 70.56 72.4655 71.584C72.4655 72.032 72.4655 72.48 72.4655 72.928C72.4655 73.312 72.4975 73.728 72.5615 74.176C72.7535 75.904 73.2655 76.768 74.0975 76.768C74.6095 76.768 75.1215 76.544 75.6335 76.096L80.6255 71.968C83.2495 69.856 84.9455 68.8 85.7135 68.8C87.0575 68.8 87.7295 70.112 87.7295 72.736C87.7295 78.88 88.8175 82.08 90.9935 82.336C91.2495 82.4 91.5055 82.432 91.7615 82.432C92.0175 82.432 92.2735 82.432 92.5295 82.432C95.8575 82.432 98.3215 81.376 99.9215 79.264C100.306 78.816 100.658 78.592 100.978 78.592C101.362 78.592 101.554 78.912 101.554 79.552C101.554 80 101.362 80.48 100.978 80.992C100.21 81.888 98.7055 83.04 96.4655 84.448C93.9055 85.984 91.8255 86.752 90.2255 86.752C89.6495 86.752 89.1695 86.656 88.7855 86.464H88.5935C87.3135 85.696 86.2895 83.648 85.5215 80.32C84.8815 77.376 83.9535 76 82.7375 76.192C80.2415 77.216 78.3215 78.752 76.9775 80.8C76.3375 81.696 75.3775 83.68 74.0975 86.752C73.5215 88.096 72.5935 88.768 71.3135 88.768ZM77.2655 37.312L75.9215 51.136C77.3295 50.048 78.5455 48.864 79.5695 47.584C80.6575 46.24 81.6175 44.864 82.4495 43.456C82.8975 42.624 83.3775 41.568 83.8895 40.288C84.4655 39.008 85.0735 37.472 85.7135 35.68C86.0975 34.72 86.2895 33.696 86.2895 32.608C86.2895 30.816 85.8095 29.28 84.8495 28C83.8895 26.72 82.8975 26.24 81.8735 26.56C79.8895 27.2 78.3535 30.784 77.2655 37.312ZM124.228 89.152C123.908 89.152 123.62 89.024 123.364 88.768C121.636 86.976 120.74 84.352 120.676 80.896C120.676 80.64 120.708 80.352 120.772 80.032C120.836 79.648 120.868 79.232 120.868 78.784L120.964 76.768V76.48C120.964 75.328 120.548 74.912 119.716 75.232C118.436 76.128 116.708 77.44 114.532 79.168C112.42 80.832 109.86 82.88 106.852 85.312C105.572 86.528 103.94 87.136 101.956 87.136C100.804 87.136 99.8123 86.528 98.9803 85.312C98.2123 84.032 97.9243 82.816 98.1163 81.664C98.3083 80 98.9803 78.208 100.132 76.288C101.284 74.304 102.692 72.352 104.356 70.432C106.084 68.448 107.908 66.72 109.828 65.248C111.812 63.712 113.7 62.624 115.492 61.984C116.196 61.728 116.868 61.536 117.508 61.408C118.148 61.28 118.788 61.216 119.428 61.216C122.18 61.216 123.556 62.176 123.556 64.096C123.556 64.736 123.3 65.056 122.788 65.056C122.596 65.056 122.404 65.056 122.212 65.056C122.02 64.992 121.828 64.896 121.636 64.768C120.484 63.808 119.428 63.328 118.468 63.328C117.508 63.328 116.1 63.904 114.244 65.056C112.772 65.952 111.332 67.072 109.924 68.416C108.516 69.76 107.172 71.264 105.892 72.928C104.676 74.528 103.716 75.968 103.012 77.248C102.308 78.464 101.892 79.552 101.764 80.512C101.7 80.768 101.668 81.088 101.668 81.472C101.668 82.496 102.084 83.008 102.916 83.008C103.94 83.008 105.86 82.08 108.676 80.224C115.396 75.744 120.068 71.776 122.692 68.32C123.332 67.488 123.908 66.368 124.42 64.96C124.74 64.064 125.412 63.616 126.436 63.616C127.588 63.616 128.164 64.256 128.164 65.536C128.164 66.56 127.684 67.84 126.724 69.376C125.188 74.048 124.42 77.28 124.42 79.072C124.548 81.824 125.22 84.032 126.436 85.696C126.628 85.888 126.724 86.144 126.724 86.464C126.724 87.04 126.436 87.616 125.86 88.192C125.284 88.832 124.74 89.152 124.228 89.152ZM134.228 125.728C130.132 125.728 128.084 122.784 128.084 116.896C128.084 113.248 129.364 109.28 131.924 104.992C133.012 103.2 134.196 101.472 135.476 99.808C136.756 98.144 138.196 96.576 139.796 95.104L150.164 85.12C150.228 83.776 150.26 82.688 150.26 81.856C150.324 80.96 150.356 80.288 150.356 79.84C149.588 80.736 148.084 81.728 145.844 82.816C143.348 84.032 141.076 84.64 139.028 84.64C137.62 84.64 136.5 84.128 135.668 83.104C134.9 82.016 134.516 80.736 134.516 79.264C134.516 77.088 135.06 74.88 136.148 72.64C137.3 70.4 138.9 68.096 140.948 65.728C144.98 60.992 149.012 58.624 153.044 58.624C154.004 58.624 154.484 59.136 154.484 60.16C154.484 61.184 154.004 61.696 153.044 61.696C149.78 61.696 146.708 63.168 143.828 66.112C141.268 68.736 139.284 72 137.876 75.904C137.62 76.48 137.492 77.12 137.492 77.824C137.492 80.192 138.452 81.376 140.372 81.376C140.884 81.376 141.364 81.28 141.812 81.088C148.02 79.168 151.86 74.112 153.332 65.92C153.524 65.024 154.068 64.576 154.964 64.576C155.796 64.576 156.212 64.928 156.212 65.632C156.212 65.76 156.18 65.92 156.116 66.112C156.116 66.24 156.084 66.4 156.02 66.592C155.828 67.232 155.604 68.192 155.348 69.472C155.156 70.752 154.964 72.096 154.772 73.504C154.58 74.912 154.42 76.192 154.292 77.344C154.164 78.432 154.1 79.168 154.1 79.552C154.1 80.32 154.42 80.704 155.06 80.704C155.444 80.704 155.764 80.576 156.02 80.32C156.596 80 157.524 79.392 158.804 78.496C159.444 78.048 159.988 77.824 160.436 77.824C160.948 77.824 161.204 78.208 161.204 78.976C161.204 79.68 160.884 80.16 160.244 80.416C159.348 80.864 158.324 81.504 157.172 82.336C156.084 83.104 154.9 84.032 153.62 85.12C153.3 88.448 152.98 91.328 152.66 93.76C152.404 96.192 152.116 98.24 151.796 99.904C150.644 106.496 148.82 112.032 146.324 116.512C142.996 122.656 138.964 125.728 134.228 125.728ZM133.46 122.656C141.908 122.656 147.22 112.736 149.396 92.896C149.396 92.704 149.396 92.512 149.396 92.32C149.46 92.128 149.492 91.968 149.492 91.84C149.492 90.624 149.204 90.016 148.628 90.016C148.18 90.016 147.572 90.4 146.804 91.168C146.164 91.808 145.492 92.416 144.788 92.992C144.148 93.568 143.284 94.368 142.196 95.392C139.06 98.336 136.372 101.696 134.132 105.472C131.38 109.824 130.004 113.664 130.004 116.992C130.004 120.768 131.156 122.656 133.46 122.656ZM171.5 90.016C168.684 90.016 166.38 89.152 164.588 87.424C162.86 85.696 161.996 83.36 161.996 80.416C161.996 79.776 162.028 79.136 162.092 78.496C162.22 77.856 162.348 77.216 162.476 76.576C163.18 73.824 165.132 70.88 168.332 67.744C171.916 64.352 175.02 62.656 177.644 62.656C179.82 62.656 180.844 63.872 180.716 66.304C180.652 69.44 178.924 72.512 175.532 75.52C174.06 76.736 172.524 77.856 170.924 78.88C169.388 79.904 167.756 80.416 166.028 80.416H165.932C166.124 84.576 168.268 86.656 172.364 86.656C173.708 86.656 175.212 86.336 176.876 85.696C177.004 85.632 177.196 85.6 177.452 85.6C178.284 85.6 178.7 86.016 178.7 86.848C178.7 87.424 178.412 87.872 177.836 88.192C176.044 89.408 173.932 90.016 171.5 90.016ZM168.524 75.904C170.508 75.456 172.204 74.624 173.612 73.408C176.108 71.296 177.356 69.28 177.356 67.36V67.168C177.356 66.72 177.196 66.368 176.876 66.112C176.556 65.856 176.332 65.792 176.204 65.92C174.22 65.92 172.108 67.36 169.868 70.24C169.548 70.688 169.164 71.296 168.716 72.064C168.268 72.768 167.788 73.632 167.276 74.656C167.212 74.784 167.18 74.912 167.18 75.04C167.18 75.616 167.628 75.904 168.524 75.904ZM194.094 90.016C191.278 90.016 188.974 89.152 187.182 87.424C185.454 85.696 184.59 83.36 184.59 80.416C184.59 79.776 184.622 79.136 184.686 78.496C184.814 77.856 184.942 77.216 185.07 76.576C185.774 73.824 187.726 70.88 190.926 67.744C194.51 64.352 197.614 62.656 200.238 62.656C202.414 62.656 203.438 63.872 203.31 66.304C203.246 69.44 201.518 72.512 198.126 75.52C196.654 76.736 195.118 77.856 193.518 78.88C191.982 79.904 190.35 80.416 188.622 80.416H188.526C188.718 84.576 190.862 86.656 194.958 86.656C196.302 86.656 197.806 86.336 199.47 85.696C199.598 85.632 199.79 85.6 200.046 85.6C200.878 85.6 201.294 86.016 201.294 86.848C201.294 87.424 201.006 87.872 200.43 88.192C198.638 89.408 196.526 90.016 194.094 90.016ZM191.118 75.904C193.102 75.456 194.798 74.624 196.206 73.408C198.702 71.296 199.95 69.28 199.95 67.36V67.168C199.95 66.72 199.79 66.368 199.47 66.112C199.15 65.856 198.926 65.792 198.798 65.92C196.814 65.92 194.702 67.36 192.462 70.24C192.142 70.688 191.758 71.296 191.31 72.064C190.862 72.768 190.382 73.632 189.87 74.656C189.806 74.784 189.774 74.912 189.774 75.04C189.774 75.616 190.222 75.904 191.118 75.904ZM222.832 39.808C222.512 39.808 222.224 39.616 221.968 39.232C221.712 38.784 221.584 38.272 221.584 37.696C221.584 36.608 222.032 35.616 222.928 34.72V34.816L226.96 31.648C228.304 30.752 229.84 30.048 231.568 29.536C231.824 29.472 232.304 29.44 233.008 29.44C233.712 29.376 234.64 29.344 235.792 29.344C236.176 29.344 236.944 29.088 238.096 28.576C239.056 28.128 239.92 27.904 240.688 27.904C241.712 27.904 242.704 28.192 243.664 28.768L245.872 30.016C246.512 30.4 246.832 31.072 246.832 32.032C246.832 32.672 246.672 33.312 246.352 33.952C246.096 34.528 245.712 34.816 245.2 34.816C244.816 34.816 243.92 34.304 242.512 33.28C241.808 32.768 241.136 32.512 240.496 32.512C239.92 32.512 239.344 32.64 238.768 32.896C238 33.152 237.232 33.344 236.464 33.472L235.888 33.856V33.76C234.672 33.76 233.2 34.048 231.472 34.624C231.216 34.688 230.768 34.848 230.128 35.104C229.488 35.296 228.688 35.552 227.728 35.872C227.536 35.936 227.184 36.192 226.672 36.64C226.16 37.024 225.488 37.568 224.656 38.272L223.504 39.52C223.312 39.712 223.088 39.808 222.832 39.808ZM223.408 91.264C221.488 93.312 219.6 94.592 217.744 95.104C218 95.168 217.904 95.2 217.456 95.2H217.264C217.328 95.2 217.488 95.168 217.744 95.104C217.488 94.976 216.912 94.816 216.016 94.624C215.12 94.432 214.16 94.112 213.136 93.664C212.112 93.28 211.312 92.8 210.736 92.224L210.448 91.936C208.976 90.464 207.856 88.608 207.088 86.368C206.832 85.536 206.576 84.736 206.32 83.968C206.128 83.136 206.032 82.304 206.032 81.472C206.032 80.704 206.224 80.064 206.608 79.552C206.992 78.976 207.408 78.688 207.855 78.688C208.432 78.688 208.816 79.136 209.008 80.032C209.456 81.504 209.904 82.976 210.352 84.448C210.864 85.856 211.664 87.104 212.752 88.192C214.288 89.728 215.664 90.496 216.88 90.496C218.16 90.496 219.696 89.504 221.488 87.52C222 87.008 222.48 86.368 222.928 85.6C223.376 84.832 223.728 84 223.984 83.104L225.904 76.768C226.288 75.552 226.736 73.664 227.248 71.104C227.824 68.544 228.464 65.312 229.168 61.408C229.616 58.976 230.032 56.32 230.416 53.44C230.864 50.56 231.248 47.488 231.568 44.224C231.632 43.776 231.728 42.976 231.856 41.824C231.984 40.608 232.112 39.072 232.24 37.216C232.368 35.552 232.944 34.72 233.968 34.72C235.184 34.72 235.696 35.584 235.504 37.312L234.832 44.512C234.576 47.648 234.224 50.688 233.776 53.632C233.328 56.576 232.848 59.424 232.336 62.176L230.896 70.24C230.64 71.648 230.32 73.024 229.936 74.368C229.552 75.712 229.104 77.056 228.592 78.4L226.576 85.312C225.68 87.872 224.624 89.856 223.408 91.264ZM253.062 90.016C250.247 90.016 247.943 89.152 246.151 87.424C244.423 85.696 243.559 83.36 243.559 80.416C243.559 79.776 243.591 79.136 243.655 78.496C243.783 77.856 243.911 77.216 244.039 76.576C244.743 73.824 246.695 70.88 249.895 67.744C253.479 64.352 256.583 62.656 259.207 62.656C261.383 62.656 262.407 63.872 262.279 66.304C262.215 69.44 260.487 72.512 257.095 75.52C255.623 76.736 254.087 77.856 252.487 78.88C250.951 79.904 249.319 80.416 247.591 80.416H247.495C247.687 84.576 249.831 86.656 253.927 86.656C255.271 86.656 256.775 86.336 258.439 85.696C258.567 85.632 258.759 85.6 259.015 85.6C259.847 85.6 260.263 86.016 260.263 86.848C260.263 87.424 259.975 87.872 259.399 88.192C257.607 89.408 255.495 90.016 253.062 90.016ZM250.087 75.904C252.071 75.456 253.766 74.624 255.174 73.408C257.671 71.296 258.919 69.28 258.919 67.36V67.168C258.919 66.72 258.759 66.368 258.439 66.112C258.119 65.856 257.895 65.792 257.767 65.92C255.783 65.92 253.671 67.36 251.431 70.24C251.111 70.688 250.727 71.296 250.279 72.064C249.831 72.768 249.351 73.632 248.839 74.656C248.775 74.784 248.743 74.912 248.743 75.04C248.743 75.616 249.191 75.904 250.087 75.904ZM275.656 90.016C272.84 90.016 270.536 89.152 268.744 87.424C267.016 85.696 266.152 83.36 266.152 80.416C266.152 79.776 266.184 79.136 266.248 78.496C266.376 77.856 266.504 77.216 266.632 76.576C267.336 73.824 269.288 70.88 272.488 67.744C276.072 64.352 279.176 62.656 281.8 62.656C283.976 62.656 285 63.872 284.872 66.304C284.808 69.44 283.08 72.512 279.688 75.52C278.216 76.736 276.68 77.856 275.08 78.88C273.544 79.904 271.912 80.416 270.184 80.416H270.088C270.28 84.576 272.424 86.656 276.52 86.656C277.864 86.656 279.368 86.336 281.032 85.696C281.16 85.632 281.352 85.6 281.608 85.6C282.44 85.6 282.856 86.016 282.856 86.848C282.856 87.424 282.568 87.872 281.992 88.192C280.2 89.408 278.088 90.016 275.656 90.016ZM272.68 75.904C274.664 75.456 276.36 74.624 277.768 73.408C280.264 71.296 281.512 69.28 281.512 67.36V67.168C281.512 66.72 281.352 66.368 281.032 66.112C280.712 65.856 280.488 65.792 280.36 65.92C278.376 65.92 276.264 67.36 274.024 70.24C273.704 70.688 273.32 71.296 272.872 72.064C272.424 72.768 271.944 73.632 271.432 74.656C271.368 74.784 271.336 74.912 271.336 75.04C271.336 75.616 271.784 75.904 272.68 75.904ZM309.674 90.208C307.818 90.208 306.282 89.024 305.066 86.656C304.746 85.952 304.458 85.088 304.202 84.064C303.946 82.976 303.69 81.728 303.434 80.32C303.05 78.08 302.73 76.992 302.474 77.056C301.642 77.184 300.618 77.952 299.402 79.36L292.106 87.904C291.594 88.416 291.082 88.672 290.57 88.672C289.738 88.672 289.226 88.096 289.034 86.944C288.97 86.432 288.906 85.888 288.842 85.312C288.842 84.672 288.842 84 288.842 83.296C288.842 79.2 289.322 74.24 290.282 68.416C290.41 67.52 290.922 67.072 291.818 67.072C292.65 67.072 293.066 67.52 293.066 68.416C293.002 69.824 292.906 71.52 292.778 73.504C292.714 75.424 292.65 77.664 292.586 80.224C292.714 80.352 292.842 80.416 292.97 80.416C294.826 80.416 298.634 76.224 304.394 67.84C304.714 67.456 305.226 67.264 305.93 67.264C307.53 67.264 308.202 67.968 307.946 69.376C306.986 73.6 306.506 76.672 306.506 78.592C306.506 79.744 306.762 81.248 307.274 83.104C307.978 85.408 308.842 86.56 309.866 86.56C312.17 86.56 314.698 83.2 317.45 76.48C318.154 74.624 318.634 72.704 318.89 70.72C318.186 70.208 317.834 69.088 317.834 67.36C317.834 65.632 318.41 64.768 319.562 64.768C320.202 64.768 320.97 65.088 321.866 65.728C322.826 66.368 323.562 67.264 324.074 68.416H324.17C324.362 68.864 324.458 69.312 324.458 69.76C324.458 70.848 324.074 71.456 323.306 71.584L322.058 71.392C321.738 72.096 321.322 73.056 320.81 74.272C320.298 75.488 319.69 76.992 318.986 78.784C316.298 86.4 313.194 90.208 309.674 90.208ZM350.635 89.152C350.315 89.152 350.027 89.024 349.771 88.768C348.043 86.976 347.147 84.352 347.083 80.896C347.083 80.64 347.115 80.352 347.179 80.032C347.243 79.648 347.275 79.232 347.275 78.784L347.371 76.768V76.48C347.371 75.328 346.955 74.912 346.123 75.232C344.843 76.128 343.115 77.44 340.939 79.168C338.827 80.832 336.267 82.88 333.259 85.312C331.979 86.528 330.347 87.136 328.363 87.136C327.211 87.136 326.219 86.528 325.387 85.312C324.619 84.032 324.331 82.816 324.523 81.664C324.715 80 325.387 78.208 326.539 76.288C327.691 74.304 329.099 72.352 330.763 70.432C332.491 68.448 334.315 66.72 336.234 65.248C338.219 63.712 340.107 62.624 341.899 61.984C342.603 61.728 343.275 61.536 343.915 61.408C344.555 61.28 345.195 61.216 345.835 61.216C348.587 61.216 349.963 62.176 349.963 64.096C349.963 64.736 349.707 65.056 349.195 65.056C349.003 65.056 348.811 65.056 348.619 65.056C348.427 64.992 348.235 64.896 348.043 64.768C346.891 63.808 345.835 63.328 344.875 63.328C343.915 63.328 342.507 63.904 340.651 65.056C339.179 65.952 337.739 67.072 336.331 68.416C334.923 69.76 333.579 71.264 332.299 72.928C331.083 74.528 330.123 75.968 329.419 77.248C328.715 78.464 328.299 79.552 328.171 80.512C328.107 80.768 328.075 81.088 328.075 81.472C328.075 82.496 328.491 83.008 329.323 83.008C330.347 83.008 332.267 82.08 335.083 80.224C341.803 75.744 346.475 71.776 349.099 68.32C349.739 67.488 350.315 66.368 350.827 64.96C351.147 64.064 351.819 63.616 352.843 63.616C353.995 63.616 354.571 64.256 354.571 65.536C354.571 66.56 354.091 67.84 353.131 69.376C351.595 74.048 350.827 77.28 350.827 79.072C350.955 81.824 351.627 84.032 352.843 85.696C353.035 85.888 353.131 86.144 353.131 86.464C353.131 87.04 352.843 87.616 352.267 88.192C351.691 88.832 351.147 89.152 350.635 89.152ZM362.362 87.328C361.402 87.328 361.05 86.464 361.306 84.736C361.498 82.496 361.818 79.744 362.266 76.48C362.778 73.152 363.386 69.312 364.09 64.96C364.41 64 364.922 63.52 365.626 63.52C366.522 63.52 366.97 63.936 366.97 64.768C366.97 64.832 366.97 64.96 366.97 65.152C366.97 65.28 366.938 65.44 366.874 65.632C366.746 66.208 366.618 66.848 366.49 67.552C366.426 68.192 366.394 68.896 366.394 69.664C366.394 70.56 366.426 71.52 366.49 72.544C366.618 73.568 366.81 74.656 367.066 75.808C367.45 75.808 369.018 74.432 371.77 71.68C374.522 69.056 376.762 67.488 378.49 66.976V66.88C378.682 66.816 378.874 66.784 379.066 66.784C379.258 66.784 379.418 66.784 379.546 66.784C380.762 66.784 381.562 67.36 381.946 68.512L383.29 77.44C383.866 81.344 384.922 83.296 386.458 83.296C387.098 83.296 387.738 83.072 388.378 82.624C389.274 81.984 390.138 81.312 390.97 80.608C391.802 79.84 392.538 79.04 393.178 78.208C393.562 78.08 393.818 78.016 393.946 78.016C394.394 78.016 394.618 78.304 394.618 78.88C394.618 79.264 394.362 79.776 393.85 80.416C393.018 81.44 392.154 82.496 391.258 83.584C390.362 84.608 389.466 85.408 388.57 85.984C387.354 86.688 386.33 87.04 385.498 87.04C383.77 87.04 382.458 85.632 381.562 82.816L379.93 75.04C379.354 72.416 378.618 71.232 377.722 71.488C377.658 71.488 377.562 71.488 377.434 71.488C377.37 71.424 377.274 71.392 377.146 71.392C376.89 71.392 376.57 71.456 376.186 71.584C375.866 71.712 375.546 71.936 375.226 72.256L372.922 74.656C370.938 76.704 369.274 78.688 367.93 80.608C366.586 82.528 365.498 84.32 364.666 85.984C364.154 86.88 363.386 87.328 362.362 87.328ZM400.837 93.76C399.237 93.76 398.437 92.8 398.437 90.88C398.437 81.344 399.109 71.2 400.453 60.448C399.813 60.32 399.141 60.224 398.437 60.16C397.797 60.032 397.157 59.904 396.517 59.776C394.725 59.52 393.829 59.008 393.829 58.24C393.829 57.472 394.213 56.992 394.98 56.8H394.885C394.309 56.8 394.405 56.768 395.173 56.704C395.941 56.576 396.933 56.448 398.148 56.32C399.365 56.192 400.325 56.128 401.029 56.128C401.413 53.888 402.181 51.232 403.333 48.16C403.973 46.304 404.485 44.704 404.869 43.36C405.317 41.952 405.669 40.832 405.924 40C406.245 38.72 407.077 38.08 408.421 38.08C408.997 38.08 409.221 38.368 409.093 38.944C408.581 40.736 407.941 43.072 407.173 45.952C406.405 48.768 405.573 52.128 404.677 56.032C405.253 56.032 405.957 56.032 406.789 56.032C407.685 56.032 408.709 56.064 409.861 56.128C411.013 56.192 412.005 56.256 412.837 56.32C413.733 56.32 414.437 56.32 414.949 56.32C415.525 56.32 415.812 56.544 415.812 56.992C415.812 57.376 415.557 57.792 415.045 58.24C414.597 58.688 414.085 58.912 413.509 58.912C412.741 58.912 411.589 59.04 410.053 59.296C408.517 59.488 406.565 59.808 404.197 60.256C403.237 68.128 402.757 78.816 402.757 92.32C402.757 93.28 402.117 93.76 400.837 93.76ZM419.595 88.768C417.995 88.768 417.099 88.032 416.907 86.56C416.779 85.664 416.683 84.704 416.619 83.68C416.555 82.592 416.523 81.44 416.523 80.224C416.523 75.68 416.843 70.72 417.483 65.344C418.187 59.904 419.179 54.048 420.459 47.776C421.291 44 421.931 40.96 422.379 38.656C422.891 36.352 423.243 34.848 423.435 34.144C424.715 29.408 426.251 26.176 428.043 24.448C428.811 23.68 429.707 23.296 430.731 23.296C432.267 23.296 433.643 24.128 434.859 25.792C436.075 27.456 436.683 29.6 436.683 32.224C436.683 33.952 436.395 35.744 435.819 37.6C435.371 38.944 434.571 40.608 433.419 42.592C432.331 44.512 430.859 46.784 429.003 49.408C425.227 54.656 423.147 57.984 422.763 59.392L421.419 65.056C421.163 66.208 420.971 67.328 420.843 68.416C420.779 69.504 420.747 70.56 420.747 71.584C420.747 72.032 420.747 72.48 420.747 72.928C420.747 73.312 420.779 73.728 420.843 74.176C421.035 75.904 421.547 76.768 422.379 76.768C422.891 76.768 423.403 76.544 423.915 76.096L428.907 71.968C431.531 69.856 433.227 68.8 433.995 68.8C435.339 68.8 436.011 70.112 436.011 72.736C436.011 78.88 437.099 82.08 439.275 82.336C439.531 82.4 439.787 82.432 440.043 82.432C440.299 82.432 440.555 82.432 440.811 82.432C444.139 82.432 446.603 81.376 448.203 79.264C448.587 78.816 448.939 78.592 449.259 78.592C449.643 78.592 449.835 78.912 449.835 79.552C449.835 80 449.643 80.48 449.259 80.992C448.491 81.888 446.987 83.04 444.747 84.448C442.187 85.984 440.107 86.752 438.507 86.752C437.931 86.752 437.451 86.656 437.067 86.464H436.875C435.595 85.696 434.571 83.648 433.803 80.32C433.163 77.376 432.235 76 431.019 76.192C428.523 77.216 426.603 78.752 425.259 80.8C424.619 81.696 423.659 83.68 422.379 86.752C421.803 88.096 420.875 88.768 419.595 88.768ZM425.547 37.312L424.203 51.136C425.611 50.048 426.827 48.864 427.851 47.584C428.939 46.24 429.899 44.864 430.731 43.456C431.179 42.624 431.659 41.568 432.171 40.288C432.747 39.008 433.355 37.472 433.995 35.68C434.379 34.72 434.571 33.696 434.571 32.608C434.571 30.816 434.091 29.28 433.131 28C432.171 26.72 431.179 26.24 430.155 26.56C428.171 27.2 426.635 30.784 425.547 37.312ZM472.51 89.152C472.19 89.152 471.902 89.024 471.646 88.768C469.918 86.976 469.022 84.352 468.958 80.896C468.958 80.64 468.99 80.352 469.054 80.032C469.118 79.648 469.15 79.232 469.15 78.784L469.246 76.768V76.48C469.246 75.328 468.83 74.912 467.998 75.232C466.718 76.128 464.99 77.44 462.814 79.168C460.702 80.832 458.142 82.88 455.134 85.312C453.854 86.528 452.222 87.136 450.238 87.136C449.086 87.136 448.094 86.528 447.262 85.312C446.494 84.032 446.206 82.816 446.398 81.664C446.59 80 447.262 78.208 448.414 76.288C449.566 74.304 450.974 72.352 452.638 70.432C454.366 68.448 456.19 66.72 458.109 65.248C460.094 63.712 461.982 62.624 463.774 61.984C464.478 61.728 465.15 61.536 465.79 61.408C466.43 61.28 467.07 61.216 467.71 61.216C470.462 61.216 471.838 62.176 471.838 64.096C471.838 64.736 471.582 65.056 471.07 65.056C470.878 65.056 470.686 65.056 470.494 65.056C470.302 64.992 470.11 64.896 469.918 64.768C468.766 63.808 467.71 63.328 466.75 63.328C465.79 63.328 464.382 63.904 462.526 65.056C461.054 65.952 459.614 67.072 458.206 68.416C456.798 69.76 455.454 71.264 454.174 72.928C452.958 74.528 451.998 75.968 451.294 77.248C450.59 78.464 450.174 79.552 450.046 80.512C449.982 80.768 449.95 81.088 449.95 81.472C449.95 82.496 450.366 83.008 451.198 83.008C452.222 83.008 454.142 82.08 456.958 80.224C463.678 75.744 468.35 71.776 470.974 68.32C471.614 67.488 472.19 66.368 472.702 64.96C473.022 64.064 473.694 63.616 474.718 63.616C475.87 63.616 476.446 64.256 476.446 65.536C476.446 66.56 475.966 67.84 475.006 69.376C473.47 74.048 472.702 77.28 472.702 79.072C472.83 81.824 473.502 84.032 474.718 85.696C474.91 85.888 475.006 86.144 475.006 86.464C475.006 87.04 474.718 87.616 474.142 88.192C473.566 88.832 473.022 89.152 472.51 89.152Z" fill="#131233"/>
</g>
<defs>
<filter id="filter0_d_2_3" x="0.0159912" y="23.296" width="480.43" height="110.432" filterUnits="userSpaceOnUse" color-interpolation-filters="sRGB">
<feFlood flood-opacity="0" result="BackgroundImageFix"/>
<feColorMatrix in="SourceAlpha" type="matrix" values="0 0 0 0 0 0 0 0 0 0 0 0 0 0 0 0 0 0 127 0" result="hardAlpha"/>
<feOffset dy="4"/>
<feGaussianBlur stdDeviation="2"/>
<feComposite in2="hardAlpha" operator="out"/>
<feColorMatrix type="matrix" values="0 0 0 0 0 0 0 0 0 0 0 0 0 0 0 0 0 0 0.3 0"/>
<feBlend mode="normal" in2="BackgroundImageFix" result="effect1_dropShadow_2_3"/>
<feBlend mode="normal" in="SourceGraphic" in2="effect1_dropShadow_2_3" result="shape"/>
</filter>
</defs>
</svg>
