<svg width="89" height="52" viewBox="0 0 89 52" fill="none" xmlns="http://www.w3.org/2000/svg">
<g filter="url(#filter0_d_1_3)">
<path d="M27.944 43H18.984V8.632C18.984 8.29067 18.856 7.992 18.6 7.736C18.3867 7.48 18.1093 7.352 17.768 7.352H14.312C13.9707 7.352 13.672 7.48 13.416 7.736C13.2027 7.992 13.096 8.29067 13.096 8.632V43H4.136V9.4C4.136 3.768 6.78133 0.952 12.072 0.952H20.008C25.2987 0.952 27.944 3.768 27.944 9.4V43ZM45.79 1.592H54.75V35.192C54.75 40.824 52.1047 43.64 46.814 43.64H39.39C34.0993 43.64 31.454 40.824 31.454 35.192V30.008H39.966V36.216C39.966 36.5573 40.0727 36.856 40.286 37.112C40.542 37.368 40.8407 37.496 41.182 37.496H44.574C44.9153 37.496 45.1927 37.368 45.406 37.112C45.662 36.856 45.79 36.5573 45.79 36.216V1.592ZM76.523 1.592C81.8137 1.592 84.459 4.408 84.459 10.04V34.552C84.459 40.184 81.8137 43 76.523 43H60.075V1.592H76.523ZM75.499 35.576V8.952C75.499 8.61067 75.371 8.312 75.115 8.056C74.9017 7.8 74.6243 7.672 74.283 7.672H69.035V36.856H74.283C74.6243 36.856 74.9017 36.728 75.115 36.472C75.371 36.216 75.499 35.9173 75.499 35.576Z" fill="#131233"/>
</g>
<defs>
<filter id="filter0_d_1_3" x="0.135986" y="0.951996" width="88.323" height="50.688" filterUnits="userSpaceOnUse" color-interpolation-filters="sRGB">
<feFlood flood-opacity="0" result="BackgroundImageFix"/>
<feColorMatrix in="SourceAlpha" type="matrix" values="0 0 0 0 0 0 0 0 0 0 0 0 0 0 0 0 0 0 127 0" result="hardAlpha"/>
<feOffset dy="4"/>
<feGaussianBlur stdDeviation="2"/>
<feComposite in2="hardAlpha" operator="out"/>
<feColorMatrix type="matrix" values="0 0 0 0 0 0 0 0 0 0 0 0 0 0 0 0 0 0 0.25 0"/>
<feBlend mode="normal" in2="BackgroundImageFix" result="effect1_dropShadow_1_3"/>
<feBlend mode="normal" in="SourceGraphic" in2="effect1_dropShadow_1_3" result="shape"/>
</filter>
</defs>
</svg>
